<svg version="1.1" xmlns="http://www.w3.org/2000/svg" width="50pt" height="50pt" viewBox="0 0 258.000000 258.000000" preserveAspectRatio="xMidYMid meet">
	<g id="cancelIcon" transform="translate(0.000000,258.000000) scale(0.100000,-0.100000)" stroke="none">
		<path d="M601 1979 l-185 -190 247 -247 247 -247 -252 -252 -253 -253 193
		-192 192 -193 250 250 250 250 250 -250 250 -250 192 193 193 192 -253 253
		-252 252 245 245 c135 135 244 248 243 251 -2 4 -85 91 -186 195 l-183 188
		-249 -249 -250 -250 -248 248 c-136 136 -249 247 -252 246 -3 0 -88 -86 -189
		-190z"/>
	</g>
</svg>
