<svg
   xmlns="http://www.w3.org/2000/svg"
   version="1.1"
   viewBox="0 0 500 450"
   preserveAspectRatio="xMidYMid meet"
   width="50pt"
   height="45pt">
  <g transform="matrix(0.11127403,0,0,-0.13269885,-34.615724,489.05752)" stroke="none" fill="#ffffff">
    <path
       d="m 393,3665 c -92,-40 -99,-194 -10,-242 28,-16 66,-18 284,-21 179,-2 254,-7 261,-15 5,-7 28,-68 50,-137 34,-103 372,-1107 547,-1624 24,-70 52,-137 62,-148 45,-50 -19,-48 1370,-48 1284,0 1298,0 1331,20 18,11 39,35 47,54 25,59 465,1847 465,1888 0,58 -24,97 -76,120 -75,33 -156,6 -182,-59 -6,-15 -91,-350 -188,-743 -97,-393 -193,-780 -213,-860 l -36,-145 -1153,0 c -1014,0 -1154,2 -1162,15 -5,8 -43,116 -85,240 -259,779 -539,1602 -558,1640 -39,79 -44,80 -407,80 -248,-1 -322,-4 -347,-15 z"/>
    <path
       d="m 2210,1166 c -120,-49 -204,-126 -247,-224 -13,-31 -28,-65 -34,-74 -15,-29 -11,-211 7,-254 45,-113 104,-192 174,-232 25,-14 52,-31 60,-37 15,-12 91,-30 168,-40 141,-18 340,93 409,228 34,68 64,193 57,236 -17,108 -31,152 -67,208 -48,79 -113,136 -197,176 -58,27 -77,31 -170,33 -91,3 -112,0 -160,-20 z m 219,-271 c 92,-47 121,-161 62,-243 -24,-34 -95,-72 -132,-71 -35,0 -109,40 -132,70 -25,35 -37,102 -26,145 10,36 59,91 93,104 34,14 105,11 135,-5 z" />
    <path
       d="m 3605,1171 c -187,-54 -315,-225 -315,-421 0,-175 92,-323 250,-399 73,-35 78,-36 190,-36 111,0 117,1 190,36 169,80 258,234 248,426 -4,72 -11,101 -37,158 -90,198 -313,298 -526,236 z m 202,-278 c 39,-18 79,-73 89,-121 15,-72 -45,-159 -126,-183 -111,-33 -226,81 -200,197 9,38 60,100 95,114 34,14 105,11 142,-7 z" />
  </g>
</svg>
