<svg
   xmlns="http://www.w3.org/2000/svg"
   version="1.1"
   width="512"
   height="512"
   viewBox="0 0 512 512">
  <g
     transform="matrix(0.11376991,0,0,-0.11300602,-35.414345,545.08903)"
     style="stroke:none">
    <path
       d="m 1645.7504,3779.9982 c 14.8993,-135.9125 97.342,-261.7575 205.6101,-316.1225 l 56.6173,-28.1893 377.4486,-5.0338 377.4485,-5.0338 4.9665,-206.3858 c 4.9664,-190.2775 6.953,-210.4127 28.8052,-254.7102 45.6912,-95.6421 150.9795,-129.872 246.3349,-79.534 22.8456,12.0811 139.06,90.6084 258.2543,175.1762 119.1942,84.5678 243.3549,172.1559 274.1468,194.3046 31.7851,22.1488 98.3353,69.4665 149.9861,105.7098 50.6576,36.2434 169.8519,120.8112 265.2073,188.2641 95.3554,67.4529 185.7444,135.9125 201.637,153.0275 73.5031,78.5272 60.5904,229.5412 -26.8187,296.9941 -16.8859,14.0946 -161.9056,116.7841 -319.838,228.5344 -158.9257,111.7504 -397.3143,279.8792 -531.4078,374.5147 -133.1003,93.6286 -260.2409,179.2032 -283.0864,189.2708 -70.5233,33.2231 -154.9526,19.1284 -202.6303,-32.2163 -46.6844,-51.3448 -53.6374,-82.5543 -59.5972,-301.0212 l -5.9597,-206.3857 -367.5157,-5.0338 c -311.8917,-5.0338 -374.4687,-8.0541 -410.2269,-23.1555 -163.8922,-64.4326 -261.2342,-243.6359 -239.3819,-442.9743 z m 277.1267,102.6895 c 4.9664,19.1284 18.8724,45.3042 31.7852,58.3921 l 20.8589,23.1554 485.7167,0 484.7234,0 0,230.548 c 0,127.8585 3.9732,233.5683 7.9463,236.5886 4.9665,3.0202 55.624,-28.1893 112.2413,-68.4597 56.6173,-40.2704 147.9996,-104.703 202.6303,-142.9599 54.6307,-39.2636 195.6773,-137.9261 312.885,-220.4804 117.2077,-82.5543 217.5295,-153.0274 221.5027,-156.0477 4.9664,-4.0271 -35.7583,-38.2569 -89.3957,-76.5138 -53.6375,-38.2568 -117.2078,-83.561 -142.0399,-101.6827 -24.8321,-17.1149 -94.3621,-66.4461 -153.9593,-107.7233 -60.5904,-42.2839 -188.7242,-132.8923 -285.073,-201.3519 -96.3487,-68.4597 -177.7981,-122.8247 -180.7779,-118.7977 -2.9799,3.0203 -5.9598,108.7301 -5.9598,235.5818 l 0,229.5412 -475.7838,0 c -471.8107,0 -474.7905,0 -502.6025,22.1487 -47.6777,37.2501 -63.5703,93.6287 -44.6979,158.0613 z" />
    <path
       d="m 393,3665 c -92,-40 -99,-194 -10,-242 28,-16 66,-18 284,-21 179,-2 254,-7 261,-15 5,-7 28,-68 50,-137 34,-103 372,-1107 547,-1624 24,-70 52,-137 62,-148 45,-50 -19,-48 1370,-48 1284,0 1298,0 1331,20 18,11 39,35 47,54 25,59 465,1847 465,1888 0,58 -24,97 -76,120 -75,33 -156,6 -182,-59 -6,-15 -91,-350 -188,-743 -97,-393 -193,-780 -213,-860 l -36,-145 -1153,0 c -1014,0 -1154,2 -1162,15 -5,8 -43,116 -85,240 -259,779 -539,1602 -558,1640 -39,79 -44,80 -407,80 -248,-1 -322,-4 -347,-15 z" />
    <path
       d="m 2210,1166 c -120,-49 -204,-126 -247,-224 -13,-31 -28,-65 -34,-74 -15,-29 -11,-211 7,-254 45,-113 104,-192 174,-232 25,-14 52,-31 60,-37 15,-12 91,-30 168,-40 141,-18 340,93 409,228 34,68 64,193 57,236 -17,108 -31,152 -67,208 -48,79 -113,136 -197,176 -58,27 -77,31 -170,33 -91,3 -112,0 -160,-20 z m 219,-271 c 92,-47 121,-161 62,-243 -24,-34 -95,-72 -132,-71 -35,0 -109,40 -132,70 -25,35 -37,102 -26,145 10,36 59,91 93,104 34,14 105,11 135,-5 z"/>
    <path
       d="m 3605,1171 c -187,-54 -315,-225 -315,-421 0,-175 92,-323 250,-399 73,-35 78,-36 190,-36 111,0 117,1 190,36 169,80 258,234 248,426 -4,72 -11,101 -37,158 -90,198 -313,298 -526,236 z m 202,-278 c 39,-18 79,-73 89,-121 15,-72 -45,-159 -126,-183 -111,-33 -226,81 -200,197 9,38 60,100 95,114 34,14 105,11 142,-7 z" />
  </g>
</svg>
