<svg xmlns="http://www.w3.org/2000/svg" version="1.1" width="50pt" height="50pt" viewBox="0 0 512 512" preserveAspectRatio="xMidYMid meet">
	<g class="" transform="translate(0.000000,512.000000) scale(0.100000,-0.100000)" stroke="none">
    	<path d="M640 5105 c-271 -55 -496 -247 -590 -502 -52 -144 -51 -126 -48 -1598 l3 -1370 23 -73 c79 -258 267 -454 512 -536 122 -41 235 -46 956 -46 l674 0 0 -140 c0 -175 17 -265 74 -385 78 -165 208 -297 369 -374 164 -79 110 -75 982 -79 566 -2 801 0 855 8 283 45 523 241 620 507 51 142 51 148 48 1283 l-3 1055 -28 60 c-15 33 -46 83 -68 112 -67 89 -971 986 -1039 1032 -115 76 -115 76 -640 76 -340 0 -479 -3 -519 -13 l-54 -12 -446 445 c-245 245 -467 461 -494 479 -26 18 -71 44 -100 57 l-52 24 -485 2 c-369 1 -501 -2 -550 -12z m1015 -406 c30 -15 62 -42 80 -68 l30 -43 5 -251 c5 -237 7 -255 28 -294 12 -24 41 -55 64 -70 l41 -28 261 -5 c276 -6 307 -11 351 -60 45 -49 44 -36 45 -1178 0 -1057 0 -1084 -20 -1121 -22 -45 -94 -109 -161 -145 -102 -56 -100 -56 -904 -56 -650 0 -748 2 -795 16 -117 35 -216 127 -261 241 -22 58 -22 61 -20 578 1 286 6 910 10 1386 l9 867 27 50 c57 104 163 182 277 201 29 5 240 9 468 8 l416 -2 49 -26z m2129 -970 c54 -13 108 -57 132 -106 16 -33 19 -71 24 -289 l5 -251 28 -40 c15 -22 46 -50 70 -64 41 -23 50 -24 302 -29 237 -5 263 -7 294 -25 49 -29 73 -67 82 -127 4 -29 8 -525 8 -1102 1 -1044 1 -1050 -20 -1093 -44 -92 -191 -184 -324 -203 -89 -12 -1396 -13 -1484 0 -164 23 -295 146 -330 308 -6 29 -11 127 -11 217 l0 163 63 45 c143 102 246 246 297 415 l22 72 121 -94 c67 -51 244 -186 392 -300 l270 -207 3 281 2 280 295 0 295 0 0 195 0 195 -295 0 -295 0 0 275 c0 151 -3 275 -6 275 -3 0 -176 -130 -385 -290 -208 -159 -381 -290 -384 -290 -3 0 -5 405 -5 900 l0 900 396 0 c252 0 411 -4 438 -11z" />
        <path d="m 1283.2969,3231 0,-281 -295.00001,0 -295,0 0,-195 0,-195 295,0 295.00001,0 0,-276 c 0,-172 4,-274 10,-272 17,6 970,739 970,746 -1,6 -885,686 -961,740 -18,13 -19,4 -19,-267 z" />
   	</g>
</svg>