<svg version="1.1" xmlns="http://www.w3.org/2000/svg"  viewBox="0 0 512 512" preserveAspectRatio="xMidYMid meet" width="13pt" height="13pt">
  <g transform="matrix(0.12325667,0,0,-0.12306974,-60.803891,570.94498)" id="editIcon" fill="green" stroke="none">
    <path
      d="M 2376,4608 C 2086,4583 1768,4480 1519,4331 1360,4236 1247,4148 1110,4010 923,3824 781,3620 684,3401 378,2704 465,1925 918,1315 c 85,-116 291,-322 407,-407 120,-89 275,-181 394,-234 697,-306 1476,-219 2086,234 116,85 322,291 407,407 89,120 181,275 234,394 306,697 219,1476 -234,2086 -85,116 -291,322 -407,407 -418,310 -916,452 -1429,406 z m 519,-428 c 662,-141 1152,-634 1297,-1300 19,-91 22,-134 22,-325 0,-191 -3,-234 -22,-325 -145,-668 -634,-1157 -1302,-1302 -91,-19 -134,-22 -325,-22 -191,0 -234,3 -325,22 -215,47 -402,124 -580,240 -373,242 -624,612 -722,1062 -19,91 -22,134 -22,325 0,191 3,234 22,325 98,450 350,821 722,1063 205,133 413,212 659,252 130,21 446,13 576,-15 z" />
    <path
      d="m 2552,3107 -562,-562 293,-293 292,-292 565,565 565,565 -290,290 c -159,159 -292,290 -295,290 -3,0 -258,-253 -568,-563 z" />
    <path
      d="m 1724,1985 c -50,-201 -87,-365 -82,-365 14,0 732,162 738,167 4,4 -551,563 -560,563 -3,0 -46,-164 -96,-365 z" />
  </g>
</svg>
