<svg version="1.0" xmlns="http://www.w3.org/2000/svg" width="512pt" height="512pt" viewBox="0 0 512.000000 512.000000" preserveAspectRatio="xMidYMid meet">
	<g transform="translate(0.000000,512.000000) scale(0.100000,-0.100000)" stroke="none">
		<path d="M3850 4698 c-26 -13 -57 -41 -75 -66 l-30 -44 -3 -506 -3 -506 -542
		541 c-483 482 -547 541 -584 550 -47 12 -103 4 -148 -20 -16 -8 -562 -548
		-1212 -1199 -1063 -1064 -1183 -1187 -1193 -1226 -25 -97 26 -196 122 -236 47
		-20 74 -20 129 -1 38 13 207 178 1146 1118 l1103 1102 1112 -1111 c1190 -1189
		1120 -1124 1220 -1124 88 0 167 75 176 169 9 97 8 97 -377 484 l-356 357 -5
		808 -5 807 -23 33 c-13 17 -40 44 -59 60 -36 26 -40 27 -192 30 -146 3 -159 1
		-201 -20z"/>
		<path d="M1472 2757 l-1083 -1084 4 -589 c3 -509 6 -596 20 -644 60 -200 202
		-346 407 -416 53 -18 114 -19 1740 -19 1626 0 1687 1 1740 19 205 70 347 216
		407 416 14 48 17 135 20 644 l4 589 -1083 1084 c-595 596 -1085 1083 -1088
		1083 -3 0 -493 -487 -1088 -1083z m1589 -822 c23 -16 53 -50 66 -75 l24 -44
		-3 -646 -3 -645 -28 -41 c-15 -22 -46 -51 -70 -65 l-42 -24 -445 0 -445 0 -42
		24 c-24 14 -55 43 -70 65 l-28 41 -3 644 c-3 639 -2 644 19 688 23 47 70 89
		116 103 15 5 227 8 470 7 l441 -2 43 -30z"/>
	</g>
</svg>
