<svg version="1.1" xmlns="http://www.w3.org/2000/svg" width="512.000000pt" height="512.000000pt" viewBox="0 0 512.000000 512.000000" preserveAspectRatio="xMidYMid meet">
	<g transform="translate(0.000000,512.000000) scale(0.100000,-0.100000)" stroke="none">
		<path d="M2436 5103 c-76 -16 -130 -39 -121 -53 3 -4 0 -21 -6 -37 -10 -27
		-13 -43 -24 -128 -3 -22 -8 -56 -10 -75 -3 -19 -7 -60 -10 -90 -10 -102 -26
		-181 -46 -235 -27 -71 -49 -112 -75 -141 -16 -17 -43 -47 -59 -65 -59 -66
		-125 -108 -230 -145 -73 -27 -269 -26 -347 1 -32 10 -58 23 -58 28 0 4 -4 6
		-9 2 -5 -3 -16 1 -24 9 -8 8 -17 12 -21 9 -3 -4 -6 -1 -6 6 0 7 -4 10 -9 7 -5
		-4 -11 -3 -13 1 -4 10 -82 69 -85 65 -2 -1 -11 6 -21 16 -16 15 -77 66 -107
		90 -5 4 -18 11 -27 15 -10 3 -18 11 -18 17 0 5 -6 10 -12 10 -7 0 -29 14 -48
		30 -19 16 -39 30 -43 30 -4 0 -18 9 -29 20 -15 13 -25 17 -32 10 -5 -5 -18
		-10 -28 -10 -10 0 -18 -5 -18 -12 0 -6 -3 -8 -6 -5 -8 7 -82 -48 -102 -75 -7
		-10 -20 -18 -28 -18 -8 0 -14 -3 -14 -7 0 -5 -14 -22 -30 -40 -17 -18 -30 -36
		-30 -41 0 -6 -7 -13 -16 -16 -8 -3 -12 -10 -9 -16 3 -5 1 -10 -4 -10 -6 0 -11
		-7 -11 -15 0 -8 -5 -15 -12 -15 -6 0 -8 -3 -5 -7 4 -3 2 -12 -4 -19 -11 -13
		-2 -64 12 -64 5 0 9 -6 9 -13 0 -7 14 -29 30 -47 17 -18 30 -39 30 -46 0 -6 7
		-14 15 -18 8 -3 15 -12 15 -19 0 -8 18 -33 40 -57 22 -24 40 -45 40 -47 0 -2
		10 -15 22 -28 34 -35 44 -49 45 -58 1 -5 10 -20 22 -33 11 -13 18 -24 13 -24
		-4 0 -2 -4 4 -8 13 -9 53 -87 57 -110 1 -9 5 -21 8 -27 13 -23 18 -216 7 -285
		-7 -51 -64 -180 -80 -180 -4 0 -8 -5 -8 -12 0 -34 -205 -203 -257 -211 -10 -1
		-22 -5 -28 -8 -31 -18 -186 -45 -315 -54 -47 -3 -92 -8 -100 -10 -8 -2 -26 -6
		-40 -9 -14 -3 -35 -7 -48 -10 -12 -4 -31 -8 -42 -10 -18 -4 -59 -36 -46 -36 3
		0 1 -12 -5 -27 -21 -55 -29 -186 -17 -289 7 -62 40 -140 59 -141 8 0 25 -3 39
		-6 112 -26 127 -28 298 -43 41 -3 87 -10 103 -14 16 -5 29 -7 29 -5 0 2 29 -7
		64 -19 36 -13 67 -21 70 -18 3 3 6 0 6 -6 0 -6 14 -13 31 -17 17 -4 33 -13 36
		-21 3 -8 11 -14 18 -14 16 0 119 -102 142 -140 9 -17 21 -30 25 -30 4 0 8 -7
		8 -15 0 -8 4 -15 9 -15 7 0 22 -39 21 -55 0 -3 7 -19 16 -36 21 -42 25 -316 4
		-336 -1 -2 -3 -6 -4 -10 -1 -5 -8 -19 -16 -33 -7 -14 -13 -27 -12 -30 4 -11
		-10 -40 -19 -40 -5 0 -9 -9 -9 -20 0 -11 -4 -20 -10 -20 -5 0 -10 -6 -10 -14
		0 -8 -13 -28 -29 -45 -16 -17 -28 -31 -26 -31 2 0 -9 -13 -23 -28 -41 -44 -89
		-106 -113 -146 -11 -20 -25 -36 -30 -36 -5 0 -9 -6 -9 -13 0 -7 -9 -23 -20
		-35 -12 -12 -18 -22 -14 -22 4 0 -3 -11 -16 -25 l-24 -25 22 -30 c12 -16 22
		-34 22 -40 0 -5 5 -10 11 -10 5 0 7 -5 4 -10 -3 -6 1 -13 9 -16 9 -3 16 -11
		16 -17 0 -28 187 -187 229 -193 8 -2 17 -8 21 -14 4 -7 15 -4 32 10 15 11 30
		20 36 20 5 0 17 9 27 20 10 11 24 20 31 20 6 0 22 11 35 25 13 13 27 25 32 25
		4 0 15 8 25 17 10 10 31 27 46 38 16 11 38 30 49 42 11 13 27 23 34 23 8 0 16
		6 19 14 3 8 16 17 30 20 13 4 24 11 24 16 0 10 80 50 99 50 6 0 11 4 11 8 0
		37 295 51 385 18 83 -30 135 -56 135 -66 0 -6 7 -10 15 -10 8 0 19 -9 25 -20
		6 -11 15 -20 19 -20 15 0 81 -63 81 -77 0 -8 7 -16 15 -19 8 -4 15 -12 15 -20
		0 -8 4 -14 10 -14 5 0 9 -3 8 -7 -2 -11 14 -47 24 -53 4 -3 10 -17 12 -30 2
		-14 5 -26 7 -27 1 -2 2 -6 3 -10 1 -5 7 -24 14 -43 6 -19 14 -62 18 -95 8 -79
		11 -102 18 -150 3 -22 8 -62 11 -90 4 -45 8 -68 20 -115 2 -8 4 -25 4 -37 1
		-22 38 -49 84 -60 116 -26 308 -18 374 16 45 22 41 11 68 196 9 64 12 85 19
		170 6 60 19 134 32 183 2 7 4 16 5 20 0 4 4 12 9 17 4 6 15 34 24 63 10 28 21
		52 26 52 5 0 11 8 14 18 7 21 69 87 120 127 21 17 43 35 50 41 20 19 126 63
		169 70 52 9 220 10 268 1 41 -7 185 -71 191 -84 1 -5 21 -20 43 -33 22 -14 49
		-33 60 -42 11 -10 39 -33 61 -51 23 -17 55 -42 70 -54 16 -13 52 -37 79 -55
		28 -17 60 -41 73 -52 18 -16 25 -18 31 -8 4 8 15 14 23 16 9 1 32 14 51 29 20
		15 38 27 42 27 3 0 19 13 35 30 16 16 34 30 40 30 5 0 10 4 10 10 0 5 9 20 19
		32 11 13 31 37 45 53 14 17 26 36 26 43 0 6 5 12 11 12 5 0 7 4 4 10 -3 5 -2
		10 3 10 5 0 8 8 7 17 -3 31 -17 73 -24 73 -4 0 -15 15 -26 32 -10 18 -24 38
		-29 45 -18 21 -30 36 -60 81 -16 23 -33 42 -38 42 -5 0 -12 8 -15 17 -4 10
		-16 28 -28 40 -29 32 -38 44 -54 75 -8 16 -18 28 -23 28 -5 0 -7 4 -3 9 3 5 0
		13 -5 16 -10 6 -36 60 -29 60 1 0 -4 11 -11 25 -8 14 -15 27 -15 30 -1 3 -7
		28 -14 57 -17 69 -4 280 19 307 5 7 7 16 3 19 -3 4 -1 7 6 7 7 0 10 4 6 9 -3
		5 -1 12 5 16 6 4 8 10 6 14 -3 4 3 17 12 27 10 10 31 37 47 59 34 45 116 125
		128 125 5 0 23 11 41 25 41 31 111 57 191 70 42 7 182 25 230 30 116 12 267
		44 259 56 -2 4 0 10 5 13 13 9 34 140 34 216 0 88 -13 173 -32 208 -6 11 -8
		22 -5 24 5 5 -27 16 -71 24 -99 19 -140 25 -205 30 -41 3 -97 10 -125 15 -27
		5 -63 11 -80 13 -56 8 -90 17 -99 27 -6 5 -20 9 -33 9 -13 0 -23 4 -23 8 0 5
		-16 14 -35 22 -19 8 -35 17 -35 22 0 4 -7 8 -15 8 -33 0 -207 212 -197 242 1
		4 -2 8 -7 8 -26 0 -49 275 -29 345 18 62 50 140 58 143 6 2 10 11 10 20 0 10
		11 30 25 45 14 15 23 27 20 27 -3 0 3 8 13 18 32 35 52 62 52 72 0 6 4 10 10
		10 5 0 21 17 34 38 13 20 36 51 50 67 14 17 30 35 35 41 5 7 7 15 4 18 -4 3
		-2 6 4 6 12 0 63 92 63 114 0 9 -5 16 -11 16 -5 0 -7 5 -4 10 3 6 3 10 -2 10
		-4 0 -21 21 -38 48 -16 26 -37 53 -47 60 -10 7 -18 20 -18 28 0 8 -8 18 -17
		21 -10 4 -29 18 -43 31 -14 13 -37 31 -52 40 -16 9 -28 20 -28 25 0 4 -4 5
		-10 2 -5 -3 -10 -2 -10 3 0 6 -13 15 -30 21 -16 5 -30 6 -30 2 0 -5 -20 -19
		-45 -32 -25 -13 -45 -27 -45 -31 0 -5 -7 -8 -15 -8 -8 0 -15 -3 -15 -7 0 -5
		-24 -24 -52 -43 -56 -37 -88 -62 -122 -95 -12 -11 -39 -31 -61 -45 -22 -13
		-45 -30 -50 -38 -6 -7 -17 -14 -25 -15 -9 -2 -39 -15 -68 -30 -28 -15 -69 -30
		-89 -34 -50 -9 -217 -8 -271 1 -67 11 -163 61 -223 116 -10 8 -33 30 -53 48
		-19 17 -34 32 -31 32 2 0 -9 14 -25 32 -16 17 -27 35 -24 40 3 4 0 8 -5 8 -6
		0 -11 6 -11 13 0 8 -7 28 -16 46 -9 17 -17 40 -19 49 -2 9 -4 17 -5 17 -3 0
		-12 40 -20 95 -9 51 -13 84 -26 215 -9 86 -46 229 -63 242 -9 6 -32 15 -51 19
		-19 4 -42 9 -50 11 -43 11 -183 9 -244 -4z m309 -1357 c17 -3 45 -7 64 -10 19
		-3 57 -13 85 -23 28 -9 53 -18 56 -18 7 -2 40 -16 85 -35 22 -10 58 -25 80
		-34 21 -9 42 -20 45 -24 7 -10 42 -32 63 -38 9 -4 17 -10 17 -15 0 -5 7 -9 15
		-9 7 0 18 -6 22 -13 4 -6 26 -26 48 -42 68 -50 194 -189 222 -243 8 -15 20
		-34 27 -42 7 -8 28 -46 47 -85 19 -38 37 -72 40 -75 6 -5 42 -93 40 -98 -2 -3
		10 -55 16 -72 51 -133 50 -502 0 -620 -4 -8 -8 -24 -10 -35 -2 -11 -6 -27 -9
		-35 -3 -8 -11 -34 -18 -57 -7 -24 -17 -43 -22 -43 -4 0 -8 -4 -8 -10 0 -18
		-34 -90 -43 -90 -4 0 -6 -4 -3 -8 3 -5 -3 -18 -13 -29 -10 -11 -22 -29 -25
		-41 -4 -12 -12 -22 -17 -22 -5 0 -9 -6 -9 -12 0 -7 -19 -35 -43 -61 -23 -26
		-59 -68 -81 -92 -21 -25 -44 -45 -52 -45 -7 0 -18 -8 -23 -18 -5 -10 -29 -32
		-53 -48 -24 -16 -45 -32 -48 -35 -3 -4 -14 -9 -26 -13 -11 -3 -29 -14 -40 -24
		-10 -10 -41 -28 -69 -41 -27 -12 -68 -32 -90 -44 -22 -12 -42 -20 -45 -19 -3
		1 -34 -8 -70 -19 -36 -11 -78 -22 -95 -25 -16 -3 -48 -8 -70 -11 -22 -4 -98
		-7 -170 -7 -119 0 -151 2 -255 19 -37 5 -117 29 -160 47 -71 29 -99 42 -135
		61 -22 11 -50 26 -62 31 -13 6 -23 14 -23 19 0 4 -6 7 -14 7 -8 0 -21 6 -28
		13 -7 6 -29 25 -48 40 -76 60 -92 73 -133 110 -23 21 -42 41 -42 45 0 4 -15
		22 -33 40 -17 18 -32 37 -32 42 0 5 -6 15 -13 22 -16 18 -67 96 -68 105 0 5
		-6 15 -13 23 -12 15 -39 70 -69 140 -17 41 -34 95 -41 130 -3 14 -8 36 -11 50
		-14 61 -19 124 -19 255 0 127 3 167 20 245 3 14 7 36 10 49 3 13 9 32 14 42 6
		10 10 26 10 36 0 10 7 31 15 47 8 15 15 35 15 42 0 8 5 14 10 14 6 0 10 5 10
		11 0 18 44 109 53 109 5 0 5 5 2 10 -3 6 -1 10 4 10 6 0 11 7 11 15 0 8 5 15
		10 15 6 0 10 6 10 13 0 13 31 54 74 98 14 14 26 30 26 35 0 6 17 24 38 41 20
		18 56 50 80 72 23 23 44 41 47 41 5 0 13 5 48 35 28 25 77 56 77 50 0 -4 12 3
		26 14 15 12 31 21 36 21 6 0 33 12 62 26 28 14 62 28 76 31 13 2 29 8 35 12 5
		5 35 14 65 22 72 17 76 17 135 25 28 3 51 7 53 9 5 5 274 -3 307 -9z"/>
	</g>
</svg>
