<svg class="topButton" version="1.1" xmlns="http://www.w3.org/2000/svg" width="512pt" height="320pt" viewBox="0 0 512 320" preserveAspectRatio="xMidYMid meet">
	<g transform="translate(0.000000,320.000000) scale(0.100000,-0.100000)" stroke="none">
		<path d="M95 3186 c-37 -17 -70 -52 -84 -89 -7 -16 -11 -108 -11 -218 0 -215
		6 -239 66 -285 l37 -29 218 0 c239 0 243 1 293 69 20 26 21 41 21 246 0 205
		-1 220 -21 246 -50 67 -55 69 -282 71 -158 2 -214 0 -237 -11z"/>
		<path d="M1055 3186 c-37 -16 -70 -52 -84 -89 -7 -16 -11 -108 -11 -218 0
		-215 6 -239 66 -285 l37 -29 1977 0 1977 0 37 29 c63 47 68 70 64 301 -3 223
		-5 229 -72 279 l-27 21 -1967 2 c-1624 2 -1972 0 -1997 -11z"/>
		<path d="M95 1906 c-37 -17 -70 -52 -84 -89 -7 -16 -11 -108 -11 -218 0 -215
		6 -239 66 -285 l37 -29 217 0 217 0 37 29 c63 47 68 70 64 301 -3 223 -5 229
		-72 279 -25 19 -43 21 -234 23 -158 2 -214 0 -237 -11z"/>
		<path d="M1055 1906 c-37 -16 -70 -52 -84 -89 -7 -16 -11 -108 -11 -218 0
		-215 6 -239 66 -285 l37 -29 1977 0 1977 0 37 29 c63 47 68 70 64 301 -3 223
		-5 229 -72 279 l-27 21 -1967 2 c-1624 2 -1972 0 -1997 -11z"/>
		<path d="M95 626 c-37 -17 -70 -52 -84 -89 -7 -16 -11 -108 -11 -218 0 -215 6
		-239 66 -285 l37 -29 217 0 217 0 37 29 c63 47 68 70 64 301 -3 223 -5 229
		-72 279 -25 19 -43 21 -234 23 -158 2 -214 0 -237 -11z"/>
		<path d="M1055 626 c-41 -18 -83 -69 -90 -109 -4 -18 -5 -118 -3 -224 3 -210
		5 -218 72 -267 l27 -21 1979 0 1979 0 27 21 c68 51 69 53 69 294 0 241 -1 243
		-69 294 l-27 21 -1967 2 c-1620 2 -1972 0 -1997 -11z"/>
	</g>
</svg>
