<svg version="1.1" xmlns="http://www.w3.org/2000/svg" width="298pt" height="297pt" viewBox="0 0 298.000000 297.000000"  preserveAspectRatio="xMidYMid meet">
<g transform="translate(0.000000,297.000000) scale(0.100000,-0.100000)" id="search" fill="#aaaaaa" stroke="none">
<path d="M955 2954 c-426 -76 -767 -370 -899 -775 -100 -308 -61 -663 104
-940 94 -158 246 -309 402 -400 333 -195 748 -210 1093 -40 l79 39 91 -86 c49
-47 232 -223 405 -392 190 -186 333 -317 360 -331 62 -32 176 -33 235 -2 98
51 162 163 153 268 -9 104 -24 121 -454 539 l-401 389 44 86 c108 211 146 461
108 697 -70 432 -381 791 -792 913 -167 50 -368 63 -528 35z m311 -455 c243
-44 452 -228 530 -465 26 -79 29 -102 29 -214 -1 -113 -4 -133 -31 -211 -62
-174 -185 -314 -349 -395 -200 -98 -399 -98 -605 3 -78 38 -109 61 -176 128
-68 67 -90 98 -127 176 -101 209 -101 402 0 609 131 268 436 423 729 369z"/>
</g>
</svg>
