<svg xmlns="http://www.w3.org/2000/svg" version="1.1" width="46.000000pt" height="48.000000pt" viewBox="0 0 48.000000 46.000000" preserveAspectRatio="xMidYMid meet" id="basketSvg">
  <g transform="translate(0.000000,46.000000) scale(0.100000,-0.100000)" stroke="none">
    <path d="M 17.390749,440.34401 C -16.435954,403.47741 7.1402331,335.88863 53.267556,335.88863 c 24.601238,0 35.876806,-21.50551 43.052168,-83.97393 5.125256,-41.98697 -3.74688,-63.59147 -7.175362,-87.04614 C 82.893102,148.4834 88.008716,122.84219 76.583137,90.033168 65.045308,56.901806 74.480912,16.820675 119.80036,2.4576272 c 39.95095,7.8888288 51.68692,13.6340478 64.6738,60.0036948 7.18137,25.641061 2.05011,27.649954 61.5031,27.649954 60.47804,0 64.29987,7.959253 65.49906,-20.689733 0.99899,-23.866093 16.18876,-68.323579 54.56228,-65.4885575 44.2894,3.272084 54.45804,30.6961335 59.40087,93.1905825 -26.41451,55.433042 -2.49715,56.446032 23.80086,134.260192 15.37577,46.08326 32.4988,96.3123 30.4487,111.67338 -2.2322,28.81798 -8.77969,15.30944 -177.33393,33.79439 -164.00826,5.12035 -174.25878,6.14443 -177.33393,25.6018 -10.25052,52.2277 -73.803718,74.75729 -107.630421,37.89068 z m 80.979078,-13.31294 c 4.100203,-7.1685 7.175363,-21.50552 8.200413,-33.79439 1.02505,-20.48145 7.17536,-21.50551 173.23372,-27.64995 94.30475,-3.07221 176.30888,-10.24072 181.43414,-15.36109 6.15031,-6.14443 -1.02505,-41.98696 -18.45093,-96.26279 l -36.44758,-91.91903 -32.23088,-1.27155 c -55.96399,-3.09825 -31.7766,-7.16851 -15.37577,-8.19259 41.00206,-2.04814 46.17944,-16.30704 47.15237,-72.709128 5.92574,-80.38841992 -65.83346,-73.90569 -78.92897,-26.625881 -5.12526,18.433303 -4.10021,35.842532 3.07515,44.03511 8.20041,11.264789 -7.17536,13.312949 -83.02918,13.312949 -89.17949,0 -93.2797,-1.02408 -80.97908,-19.457383 9.22547,-15.361084 9.22547,-25.601807 0,-47.107327 -42.7864,-60.596885 -92.398764,-11.690553 -76.878868,33.794387 17.008908,26.677953 7.175362,62.468413 13.325668,72.709133 5.12526,11.2648 10.25052,51.20362 10.25052,90.11837 0,80.90171 -16.400826,112.64795 -59.452994,117.76832 -28.701445,3.07221 -41.002065,32.77031 -28.701445,65.54062 6.150309,17.40923 63.5532,19.45738 73.803716,3.07222 z"/>
  </g>
</svg>
