<svg version="1.1" xmlns="http://www.w3.org/2000/svg" width="512.000000pt" height="512.000000pt" viewBox="0 0 512.000000 512.000000" preserveAspectRatio="xMidYMid meet">
	<g transform="translate(0.000000,512.000000) scale(0.100000,-0.100000)" stroke="none">
		<path d="M2365 4259 c-551 -45 -1068 -272 -1535 -675 -189 -162 -414 -405
		-565 -610 -82 -111 -226 -332 -248 -380 l-19 -41 50 -104 c260 -541 737 -1036
		1249 -1297 396 -202 782 -294 1243 -295 360 -1 633 50 960 179 581 230 1143
		728 1525 1349 111 181 108 158 40 272 -532 896 -1329 1477 -2175 1587 -152 20
		-388 27 -525 15z m320 -639 c264 -30 484 -136 654 -315 133 -141 213 -290 263
		-493 32 -125 32 -379 0 -504 -73 -295 -235 -520 -477 -664 -351 -210 -827
		-198 -1168 29 -93 62 -228 197 -283 283 -59 92 -112 213 -141 319 -24 91 -27
		116 -27 285 0 169 3 194 27 285 31 116 99 263 162 349 56 79 184 203 260 254
		210 140 471 201 730 172z"/>

		<path d="M2430 3184 c-219 -47 -410 -225 -480 -449 -31 -98 -31 -252 0 -350
		85 -272 340 -465 615 -465 227 0 457 141 563 346 131 253 85 541 -118 745
		-154 155 -369 219 -580 173z"/>
	</g>
</svg>
