<svg version="1.1" xmlns="http://www.w3.org/2000/svg" width="13pt" height="13pt" viewBox="0 0 512.000000 512.000000" preserveAspectRatio="xMidYMid meet">
	<g transform="translate(0.000000,512.000000) scale(0.100000,-0.100000)" fill="red" stroke="none" id="deleteIcon">
		<path d="M2325 5110 c-334 -36 -618 -118 -905 -261 -387 -194 -709 -473 -959
		-829 -405 -580 -550 -1320 -395 -2020 223 -1003 1042 -1784 2054 -1960 411
		-72 850 -41 1236 86 852 282 1495 981 1699 1849 52 220 60 303 60 590 -1 233
		-4 287 -23 399 -47 272 -113 477 -232 721 -125 258 -279 474 -485 681 -394
		397 -899 650 -1455 729 -132 19 -477 28 -595 15z m-185 -1385 l425 -425 427
		427 428 428 370 -370 370 -370 -427 -427 -428 -428 428 -428 427 -427 -370
		-370 -370 -370 -427 428 -428 427 -427 -427 -428 -428 -370 370 -370 370 427
		427 428 428 -428 428 -427 427 367 368 c203 202 370 367 373 367 3 0 196 -191
		430 -425z"/>
	</g>
</svg>
