<svg version="1.1" xmlns="http://www.w3.org/2000/svg" width="40pt" height="40pt" viewBox="0 0 512.000000 512.000000" preserveAspectRatio="xMidYMid meet">
  <g id="saveIcon" transform="translate(0.000000,512.000000) scale(0.100000,-0.100000)" stroke="none">
  <path
    d="M 465,5105 C 240,5055 62,4876 15,4652 -7,4551 -7,569 15,468 57,266 212,94 411,29 l 74,-24 2075,0 2075,0 74,24 c 150,49 285,167 351,306 64,133 61,31 58,1968 l 2.8851,1910.3034 -3.4598,102.9035 c -59,126 -53.8352,185.9563 -314.4138,445.6092 -306.9442,305.8538 -463.2644,332.069 -463.2644,332.069 L 4253.3218,5115 2295,5117 c -1444,1 -1781,-1 -1830,-12 z m 3360,-204 c 50,-22 91,-69 105,-119 6,-24 10,-291 10,-753 l 0,-717 -28,-53 c -22,-43 -38,-59 -81,-81 l -53,-28 -1317,0 c -1251,0 -1318,1 -1356,19 -59,26 -101,80 -115,144 -7,38 -10,266 -8,759 l 3,705 30,48 c 23.6368,37.8189 45,56 74,72 l 44,23 1326,0 c 1265,0 1328,-1 1366,-19 z m 596,-2364 c 24,-13 58,-43 74,-66 l 30,-43 3,-1026 c 2,-712 0,-926.18391 -8,-952.18391 -14,-50 -50.1149,-85.22988 -99.1149,-107.22988 -38,-18 -103.2299,-1.34483 -1843.2299,-1.34483 C 837.65517,341.24138 743,330.47127 705,348.47127 c -49,22 -102.77011,39.57471 -116.77011,89.57471 C 580.22989,464.04598 590,690 592,1402 l 3,1026 30,43 c 17,23 50,53 74,66 l 44,23 1817,0 1817,0 z" 
  />
  <path d="M2957 4723 c-4 -3 -7 -314 -7 -690 l0 -683 298 0 297 0 -2 687 -3   688 -288 3 c-159 1 -291 -1 -295 -5z" />
  </g>
</svg>
