<svg id="basketSvg" version="1.0" xmlns="http://www.w3.org/2000/svg"
 width="48.000000pt" height="46.000000pt" viewBox="0 0 48.000000 46.000000"
 preserveAspectRatio="xMidYMid meet">
	<g transform="translate(0.000000,46.000000) scale(0.100000,-0.100000)"
		fill="#ffffff" stroke="none">
		<path d="M17 432 c-33 -36 -10 -102 35 -102 24 0 35 -21 42 -82 5 -41 3 -64
		-7 -85 -8 -16 -18 -50 -22 -76 -6 -39 -4 -52 10 -67 38 -42 105 -13 105 43 0
		26 2 27 60 27 59 0 60 0 60 -28 0 -35 27 -62 62 -62 40 0 58 29 56 91 -2 37 7
		80 26 136 15 45 26 95 24 110 l-3 28 -170 5 c-160 5 -170 6 -173 25 -10 51
		-72 73 -105 37z m79 -13 c4 -7 7 -21 8 -33 1 -20 7 -21 169 -27 92 -3 172 -10
		177 -15 6 -6 -1 -41 -18 -94 l-27 -85 -40 -6 c-25 -4 -31 -7 -15 -8 40 -2 47
		-13 46 -71 l-1 -55 -34 0 c-30 0 -36 4 -42 29 -5 18 -4 35 3 43 8 11 -7 13
		-81 13 -87 0 -91 -1 -79 -19 9 -15 9 -25 0 -46 -10 -22 -18 -26 -45 -23 -32 3
		-32 3 -30 56 1 28 7 61 13 71 5 11 10 50 10 88 0 79 -16 110 -58 115 -28 3
		-40 32 -28 64 6 17 62 19 72 3z"/>
	</g>
</svg>
